<svg version="1.1" xmlns="http://www.w3.org/2000/svg" style="display: block;" viewBox="0 0 1136 1024" width="284" height="256" preserveAspectRatio="none">
<defs>
	<linearGradient id="Gradient1" gradientUnits="userSpaceOnUse" x1="142.259" y1="822.925" x2="322.29" y2="193.202">
		<stop class="stop0" offset="0" stop-opacity="1" stop-color="rgb(219,149,79)"/>
		<stop class="stop1" offset="1" stop-opacity="1" stop-color="rgb(255,235,169)"/>
	</linearGradient>
	<linearGradient id="Gradient2" gradientUnits="userSpaceOnUse" x1="534.803" y1="708.989" x2="553.166" y2="322.628">
		<stop class="stop0" offset="0" stop-opacity="1" stop-color="rgb(242,172,92)"/>
		<stop class="stop1" offset="1" stop-opacity="1" stop-color="rgb(255,230,161)"/>
	</linearGradient>
	<linearGradient id="Gradient3" gradientUnits="userSpaceOnUse" x1="70.4016" y1="967.619" x2="15.9617" y2="1031.11">
		<stop class="stop0" offset="0" stop-opacity="1" stop-color="rgb(142,129,118)"/>
		<stop class="stop1" offset="1" stop-opacity="1" stop-color="rgb(163,156,144)"/>
	</linearGradient>
	<linearGradient id="Gradient4" gradientUnits="userSpaceOnUse" x1="215.131" y1="41.2791" x2="207.731" y2="-21.2345">
		<stop class="stop0" offset="0" stop-opacity="1" stop-color="rgb(114,99,86)"/>
		<stop class="stop1" offset="1" stop-opacity="1" stop-color="rgb(133,123,112)"/>
	</linearGradient>
</defs>
<path transform="translate(0,0)" fill="rgb(111,86,61)" d="M 0 0 L 422.125 0 L 1136 0 L 1136 21.1214 L 1136 1024 L 481.388 1024 L 307.352 1024 L 120.084 1024 L 0 1024 L 0 941.585 L 0 134.346 L 0 0 z"/>
<path transform="translate(0,0)" fill="rgb(126,110,94)" d="M 422.125 0 L 1136 0 L 1136 21.1214 C 1052.67 19.4419 967.942 24.8913 884.407 22.1074 C 868.904 21.5907 851.869 24.1336 836.167 23.8925 C 789.991 23.1834 744.153 19.0666 698.005 22.7304 C 693.359 22.3927 687.747 21.5474 683.239 20.7769 C 671.974 18.458 661.201 18.3536 649.795 18.215 C 626.08 17.9267 597.496 28.2818 573.9 26.7947 C 550.113 25.2955 535.272 23.5776 511.032 24.985 C 502.801 24.2457 491.694 25.0935 483.014 24.5855 C 466.507 23.6196 451.985 20.1069 436.279 15.3684 C 427.958 11.8065 423.593 9.76734 422.125 0 z"/>
<path transform="translate(0,0)" fill="url(#Gradient4)" d="M 0 0 L 422.125 0 C 423.593 9.76734 427.958 11.8065 436.279 15.3684 C 423.686 12.3576 392.13 15.3694 381.347 23.4013 C 377.025 25.9385 372.509 25.4503 367.588 24.7601 C 333.393 19.9644 301.297 20.8254 267.078 21.1663 C 207.882 21.756 149.676 16.7867 90.293 22.0192 C 75.862 23.2908 58.1544 20.4155 43.4173 19.9132 C 42.8943 25.0651 41.363 33.9547 37.6398 37.7449 C 33.6609 40.1882 30.9977 38.6397 26.963 39.6347 C 24.2705 40.2988 16.8002 44.8964 14.4127 45.4834 C 9.8411 46.6074 7.89872 47.0829 3.13019 48.736 C 3.24398 59.4299 5.2892 129.244 1.35806 133.179 C 0.932746 133.605 0.472767 133.977 0 134.346 L 0 0 z"/>
<path transform="translate(0,0)" fill="url(#Gradient3)" d="M 0 941.585 C 5.17153 942.05 10.4014 942.468 15.5196 942.743 C 25.064 943.257 33.5154 939.887 40.2333 948.43 C 44.2839 953.581 44.6378 958.843 47.0642 964.732 C 50.7615 965.288 59.988 966.653 63.092 967.843 C 79.7253 974.22 109.273 996.961 121.694 1009.37 C 121.605 1014.97 121.801 1018.58 120.084 1024 L 0 1024 L 0 941.585 z"/>
<path transform="translate(0,0)" fill="rgb(107,88,69)" d="M 381.347 23.4013 C 392.13 15.3694 423.686 12.3576 436.279 15.3684 C 451.985 20.1069 466.507 23.6196 483.014 24.5855 C 491.694 25.0935 502.801 24.2457 511.032 24.985 C 499.599 26.6153 487.489 25.1627 476.452 27.7777 C 458.515 32.0977 442.61 41.6137 424.865 46.3539 C 407.562 50.976 399.315 42.8388 388.742 30.7442 C 386.684 28.3892 384.065 24.923 381.347 23.4013 z"/>
<path transform="translate(0,0)" fill="rgb(95,81,78)" d="M 307.352 1024 L 300.78 1022.44 C 343.224 1019.97 385.547 1021.65 427.998 1020.68 C 432.48 1020.58 433.401 1016.04 438.758 1016.29 C 446.012 1028.59 473.243 1014.09 481.388 1024 L 307.352 1024 z"/>
<path transform="translate(0,0)" fill="rgb(246,201,132)" d="M 597.132 58.9208 C 610.029 51.5138 673.316 73.4353 679.535 89.802 C 701.235 116.141 706.568 116.413 729.903 123.162 C 737.086 125.24 797.83 198.844 800.292 205.787 C 808.731 213.404 828.764 248.874 806.608 250.615 C 797.66 251.318 775.916 239.939 765.782 237.09 C 737.183 249.985 757.598 270.38 765.616 292.016 C 770.971 303.617 780.307 314.104 792.365 317.382 C 806.023 321.094 846.726 325.438 857.867 318.496 C 886.551 300.625 864.325 230.641 861.533 208.944 C 862.527 206.265 868.175 202.526 870.697 200.68 C 874.836 202.111 878.654 203.718 881.68 207.01 C 890.081 216.148 895.187 228.743 901.852 239.181 C 910.332 252.463 919.925 265.028 928.313 278.368 C 935.676 290.079 941.346 302.6 948.05 314.659 C 956.425 329.725 965.549 344.174 973.104 359.702 C 979.563 372.977 991.29 397.303 994.446 411.174 C 996.305 419.35 996.106 428.17 997.173 436.511 C 999.023 450.983 1002.36 465.663 1003.05 480.217 C 1004.73 515.208 1003.53 630.675 993.401 660.065 C 988.991 672.86 982.468 684.951 978.513 697.902 C 974.333 711.589 973.655 727.041 967.735 740.081 C 966.447 750.247 948.331 783.957 941.447 792.111 C 929.932 805.75 916.105 820.908 904.825 835.504 C 898.109 842.959 889.898 849.285 883.716 857.191 C 876.638 866.242 875.919 880.274 866.017 887.249 C 862.304 889.864 847.409 887.967 843.177 886.811 C 837.917 887.209 834.268 889.737 829.683 889.153 C 827.362 886.713 828.067 887.885 827.425 883.984 C 825.852 883.402 825.846 882.467 824.774 880.524 C 824.206 881.665 824.066 881.753 823.909 883.003 C 824.866 879.056 831.859 871.364 834.857 867.598 C 844.355 854.342 884.075 812.038 887.73 801.448 C 889.129 792.279 887.611 781.821 890.841 772.167 C 894.067 762.528 902.961 750.692 904.262 741.034 C 905.709 730.29 904.905 716.205 904.727 705.161 C 904.363 682.503 903.048 659.893 902.809 637.235 C 896.618 637.132 890.005 637.293 883.778 637.336 C 872.627 648.582 875.732 657.638 856.625 669.243 C 846.613 667.497 844.72 666.674 837.723 659.475 C 835.541 652.141 829.963 619.321 827.939 615.77 C 824.626 616.924 823.305 616.835 820.907 619.484 C 821.067 624.66 819.752 628.414 818.386 633.353 C 804.938 647.34 767.534 679.836 750.136 680.196 C 720.164 680.817 740.047 645.002 754.593 636.888 C 762.361 628.583 764.914 607.837 768.57 598.072 C 778.036 572.794 790.634 553.713 787.944 526.081 C 784.508 502.667 787.308 474.166 781.869 451.407 C 774.862 422.084 757.474 383.229 737.567 360.071 C 724.617 345.006 715.846 336.775 701.57 324.396 C 686.065 310.951 652.868 295.325 639.8 282.572 C 631.794 279.049 627.634 276.847 620.531 271.84 C 602.533 259.495 607.811 219.473 614.947 202.378 C 624.965 181.729 630.351 174.795 627.584 150.954 C 623.439 115.223 632.792 111.312 602.931 86.5514 C 597.101 83.5651 593.027 76.7618 590.024 71.2364 C 592.217 66.296 593.397 62.9347 597.132 58.9208 z"/>
<path transform="translate(0,0)" fill="rgb(253,243,184)" d="M 597.132 58.9208 C 610.029 51.5138 673.316 73.4353 679.535 89.802 C 701.235 116.141 706.568 116.413 729.903 123.162 C 737.086 125.24 797.83 198.844 800.292 205.787 L 800.444 208.13 C 796.465 206.723 783.074 182.249 779.001 186.357 C 757.288 208.26 739.119 215.352 710.526 224.869 C 698.584 221.467 647.172 219.281 633.803 225.165 C 631.19 226.314 627.759 231.812 622.209 233.229 C 619.451 232.232 618.726 231.608 616.394 229.926 C 608.967 232.57 611.352 251.739 612.251 257.775 C 613.998 269.5 639.35 278.407 640.31 281.66 L 639.8 282.572 C 631.794 279.049 627.634 276.847 620.531 271.84 C 602.533 259.495 607.811 219.473 614.947 202.378 C 624.965 181.729 630.351 174.795 627.584 150.954 C 623.439 115.223 632.792 111.312 602.931 86.5514 C 597.101 83.5651 593.027 76.7618 590.024 71.2364 C 592.217 66.296 593.397 62.9347 597.132 58.9208 z"/>
<path transform="translate(0,0)" fill="rgb(161,150,126)" d="M 597.132 58.9208 C 610.029 51.5138 673.316 73.4353 679.535 89.802 C 675.46 89.5565 673.088 92.0388 670.214 91.4385 C 653.1 87.8638 639.14 79.8833 621.113 81.4473 C 609.838 84.0402 608.479 79.8134 602.931 86.5514 C 597.101 83.5651 593.027 76.7618 590.024 71.2364 C 592.217 66.296 593.397 62.9347 597.132 58.9208 z"/>
<path transform="translate(0,0)" fill="rgb(187,171,144)" d="M 597.132 58.9208 C 616.439 56.0167 607.824 76.7428 621.113 81.4473 C 609.838 84.0402 608.479 79.8134 602.931 86.5514 C 597.101 83.5651 593.027 76.7618 590.024 71.2364 C 592.217 66.296 593.397 62.9347 597.132 58.9208 z"/>
<path transform="translate(0,0)" fill="rgb(210,156,96)" d="M 866.783 832.608 L 866.754 832.576 C 872.031 835.78 870.84 835.748 873.391 840.75 C 875.111 844.121 887.516 849.15 891.099 845.775 C 909.794 828.161 926.098 805.509 942.578 785.687 C 948.328 778.77 964.927 741.824 967.735 740.081 C 966.447 750.247 948.331 783.957 941.447 792.111 C 929.932 805.75 916.105 820.908 904.825 835.504 C 898.109 842.959 889.898 849.285 883.716 857.191 C 876.638 866.242 875.919 880.274 866.017 887.249 C 862.304 889.864 847.409 887.967 843.177 886.811 C 837.917 887.209 834.268 889.737 829.683 889.153 C 827.362 886.713 828.067 887.885 827.425 883.984 C 825.852 883.402 825.846 882.467 824.774 880.524 C 824.206 881.665 824.066 881.753 823.909 883.003 C 824.866 879.056 831.859 871.364 834.857 867.598 C 844.355 854.342 884.075 812.038 887.73 801.448 L 889.187 804.278 C 886.495 810.408 871.995 826.188 866.783 832.608 z"/>
<path transform="translate(0,0)" fill="rgb(151,124,86)" d="M 843.177 886.811 C 837.917 887.209 834.268 889.737 829.683 889.153 C 827.362 886.713 828.067 887.885 827.425 883.984 C 825.852 883.402 825.846 882.467 824.774 880.524 C 824.206 881.665 824.066 881.753 823.909 883.003 C 824.866 879.056 831.859 871.364 834.857 867.598 C 836.36 876.741 834.373 880.587 841.993 886.006 C 842.384 886.281 842.778 886.549 843.177 886.811 z"/>
<path transform="translate(0,0)" fill="rgb(210,156,96)" d="M 820.907 619.484 C 820.606 616.14 820.64 610.897 822.811 608.183 C 827.619 610.016 833.255 618.283 837.956 620.209 C 852.385 626.121 869.288 631.103 884.598 634.846 C 887.049 635.446 901.884 632.583 904.488 637.411 C 906.868 667.586 905.75 699.717 907.502 730.172 C 907.807 735.477 905.917 745.798 904.373 749.286 C 900.41 758.239 892.335 770.773 890.715 779.835 C 889.5 786.629 891.293 797.412 889.187 804.278 L 887.73 801.448 C 889.129 792.279 887.611 781.821 890.841 772.167 C 894.067 762.528 902.961 750.692 904.262 741.034 C 905.709 730.29 904.905 716.205 904.727 705.161 C 904.363 682.503 903.048 659.893 902.809 637.235 C 896.618 637.132 890.005 637.293 883.778 637.336 C 872.627 648.582 875.732 657.638 856.625 669.243 C 846.613 667.497 844.72 666.674 837.723 659.475 C 835.541 652.141 829.963 619.321 827.939 615.77 C 824.626 616.924 823.305 616.835 820.907 619.484 z"/>
<path transform="translate(0,0)" fill="url(#Gradient2)" d="M 425.57 355.989 C 454.397 350.206 455.339 345.893 481.397 332.509 C 503.644 322.786 522.012 321.84 546.93 320.911 C 576.678 319.803 614.489 336.935 642.207 345.709 C 646.476 347.06 674.192 373.961 678.352 378.128 C 686.637 380.356 708.069 412.112 713.729 420.394 C 721.073 431.143 720.193 451.147 726.511 456.455 C 730.159 456.943 729.515 456.315 731.91 458.453 C 734.491 472.399 733.079 478.606 731.527 492.068 C 731.544 501.693 733.916 513.729 734.51 523.093 C 734.849 528.439 748.27 529.963 749.77 524.265 C 754.035 508.072 751.193 489.767 745.751 474.922 L 745.272 473.631 L 745.921 472.751 C 753.064 476.104 757.509 510.255 753.334 518.185 C 751.26 522.123 745.425 542.893 742.471 545.554 C 741.885 543.745 741.835 542.349 740.514 541.57 C 738.925 550.657 734.07 570.098 737.862 578.103 C 736.652 584.124 722.293 592.937 717.537 599.803 C 708.434 612.946 702.582 630.741 693.476 643.244 C 680.232 661.431 655.787 676.987 640.98 693.016 L 639.797 692.191 C 634.612 695.769 595.049 706.007 586.253 707.745 C 551.319 714.647 494.368 715.45 461.818 700.399 C 447.517 693.786 431.594 677.756 419.578 670.17 L 414.387 672.642 C 404.452 663.16 387.387 674.286 377.676 663.335 C 375.001 660.319 371.651 655.002 372.711 650.775 C 379.097 641.515 397.699 654.391 404.787 651.046 C 403.58 647.665 377.906 627.562 372.961 620.156 C 367.776 616.58 366.665 606.558 362.653 602.82 C 351.542 592.47 346.471 494.073 351.756 486.324 C 353.379 464.958 355.368 462.472 362.087 443.44 C 373.33 411.599 383.584 401.695 407.085 378.686 C 411.879 373.992 420.722 362.06 425.57 355.989 z"/>
<path transform="translate(0,0)" fill="rgb(155,104,48)" d="M 639.797 692.191 C 634.612 695.769 595.049 706.007 586.253 707.745 C 551.319 714.647 494.368 715.45 461.818 700.399 C 447.517 693.786 431.594 677.756 419.578 670.17 L 414.387 672.642 C 404.452 663.16 387.387 674.286 377.676 663.335 C 375.001 660.319 371.651 655.002 372.711 650.775 C 379.097 641.515 397.699 654.391 404.787 651.046 C 403.58 647.665 377.906 627.562 372.961 620.156 C 367.776 616.58 366.665 606.558 362.653 602.82 C 351.542 592.47 346.471 494.073 351.756 486.324 C 352.271 515.809 352.092 543.973 355.494 572.779 C 359.824 609.443 380.802 626.836 407.236 649.826 C 412.418 654.334 416.932 664.776 422.656 669.527 C 462.659 706.436 490.654 711.589 543.978 710.669 C 571.829 710.188 588.058 705.783 614.633 698.445 C 621.163 696.642 631.148 694.289 636.918 691.672 L 639.797 692.191 z"/>
<path transform="translate(0,0)" fill="rgb(155,104,48)" d="M 678.352 378.128 C 686.637 380.356 708.069 412.112 713.729 420.394 C 721.073 431.143 720.193 451.147 726.511 456.455 C 730.159 456.943 729.515 456.315 731.91 458.453 C 734.491 472.399 733.079 478.606 731.527 492.068 C 731.544 501.693 733.916 513.729 734.51 523.093 C 734.849 528.439 748.27 529.963 749.77 524.265 C 754.035 508.072 751.193 489.767 745.751 474.922 L 745.272 473.631 L 745.921 472.751 C 753.064 476.104 757.509 510.255 753.334 518.185 C 751.26 522.123 745.425 542.893 742.471 545.554 C 741.885 543.745 741.835 542.349 740.514 541.57 C 738.925 550.657 734.07 570.098 737.862 578.103 C 736.652 584.124 722.293 592.937 717.537 599.803 C 708.434 612.946 702.582 630.741 693.476 643.244 C 680.232 661.431 655.787 676.987 640.98 693.016 L 639.797 692.191 L 636.918 691.672 C 640.943 689.05 644.832 686.224 648.569 683.207 C 659.191 674.596 686.904 649.516 694.335 638.336 C 700.315 629.798 708.055 608.243 714.52 601.398 C 737.156 577.428 735.586 567.576 738.968 535.217 C 729.73 518.085 730.44 507.994 729.337 488.964 C 728.256 470.317 720.569 441.94 713.481 424.683 C 708.068 411.503 688.132 389.924 678.352 378.128 z"/>
<path transform="translate(0,0)" fill="url(#Gradient1)" d="M 136.434 762.712 C 121.144 740.221 113.003 713.804 103.284 688.47 C 96.746 671.426 88.376 652.504 84.4461 634.869 C 80.4818 617.081 80.5643 596.665 79.0402 578.447 C 77.0825 534.365 73.534 489.898 81.4853 446.301 C 85.9851 421.628 90.8669 417.184 99.5322 395.056 C 105.317 378.13 109.344 360.565 116.674 344.188 C 120.219 335.052 127.537 326.45 131.624 317.835 C 144.299 291.122 161.521 268.421 177.618 243.805 C 186.923 229.574 191.825 210.052 206.439 199.792 C 215.448 193.467 226.129 194.456 236.389 196.023 C 239.217 196.447 238.769 196.854 240.631 199.561 C 240.873 206.317 234.172 208.589 230.69 214.247 C 209.398 248.835 208.185 284.476 225.103 320.091 C 235.787 322.191 251.84 322.697 262.743 321.913 C 301.037 319.162 337.543 288.614 334.087 248.004 C 335.189 247.455 336.277 246.843 337.435 246.422 C 337.337 243.173 336.744 241.473 340.13 239.651 C 353.209 232.612 368.75 229.786 382.744 225.561 C 398.087 231.628 398.565 227.937 413.591 229.8 C 428.656 231.667 443.228 234.144 458.871 233.905 C 468.434 233.759 469.275 239.319 473.833 245.324 L 474.364 246.018 C 461.236 284.996 445.798 292.723 412.033 310.687 C 404.124 314.894 393.297 326.765 385.343 331.738 C 378.842 336.99 366.803 344.944 361.193 350.123 C 346.261 363.908 332.778 384.135 319.491 399.906 C 322.622 409.069 319.801 409.139 324.962 419.297 C 320.93 432.917 320.975 436.015 310.917 445.636 L 304.319 454.236 C 301.183 463.484 302.145 477.375 300.902 487.208 C 296.335 523.339 296.679 563.051 311.697 596.918 C 318.173 611.523 329.413 622.585 334.389 639.858 C 347.749 653.359 356.692 660.516 365 677.798 C 355.647 679.71 346.604 681.111 337.19 682.579 C 328.475 679.218 323.603 676.301 317.258 669.137 C 300.336 653.088 283.201 644.933 268.933 631.78 C 260.583 630.748 256.748 626.283 248.917 626.133 L 248.14 632.7 L 245.394 634.352 C 236.945 634.777 228.592 636.134 221.251 632.33 C 213.82 634.142 209.2 636.3 201.675 635.894 C 194.83 635.755 189.018 635.348 182.195 634.764 C 181.61 658.052 181.386 681.348 181.521 704.643 C 181.598 716.518 181.388 734.425 183.564 745.637 C 192.576 765.111 196.489 784.879 203.703 804.928 C 209.817 821.917 221.186 838.965 225.405 856.289 C 231.603 857.895 238.356 859.155 242.908 863.704 C 245.425 871.649 232.409 874.956 226.326 877.401 C 212.128 871.887 191.265 854.03 182.857 841.273 C 176.488 842.521 164.185 838.807 157.163 837.221 C 155.78 824.172 157.474 808.053 156.409 793.611 C 148.685 782.992 142.963 773.903 136.434 762.712 z"/>
<path transform="translate(0,0)" fill="rgb(210,156,96)" d="M 183.564 745.637 C 192.576 765.111 196.489 784.879 203.703 804.928 C 209.817 821.917 221.186 838.965 225.405 856.289 C 231.603 857.895 238.356 859.155 242.908 863.704 C 245.425 871.649 232.409 874.956 226.326 877.401 C 212.128 871.887 191.265 854.03 182.857 841.273 C 176.488 842.521 164.185 838.807 157.163 837.221 C 155.78 824.172 157.474 808.053 156.409 793.611 C 148.685 782.992 142.963 773.903 136.434 762.712 C 142.435 765.589 148.152 779.655 152.89 784.496 C 169.173 801.132 172.168 813.249 180.939 833.751 C 188.377 839.043 206.139 825.19 204.804 816.1 C 203.029 804.008 182.614 754.922 183.564 745.637 z"/>
<path transform="translate(0,0)" fill="rgb(155,104,48)" d="M 156.409 793.611 C 167.919 802.728 176.935 826.57 182.857 841.273 C 176.488 842.521 164.185 838.807 157.163 837.221 C 155.78 824.172 157.474 808.053 156.409 793.611 z"/>
<path transform="translate(0,0)" fill="rgb(194,142,79)" d="M 302.121 427.7 C 305.913 417.328 311.83 407.861 319.491 399.906 C 322.622 409.069 319.801 409.139 324.962 419.297 C 320.93 432.917 320.975 436.015 310.917 445.636 C 312.835 437.343 310.857 430.251 302.121 427.7 z"/>
<path transform="translate(0,0)" fill="rgb(194,142,79)" d="M 334.389 639.858 C 347.749 653.359 356.692 660.516 365 677.798 C 355.647 679.71 346.604 681.111 337.19 682.579 C 328.475 679.218 323.603 676.301 317.258 669.137 C 320.819 670.112 324.229 672.58 327.312 674.608 C 341.977 684.255 346.682 677.004 356.544 666.413 C 350.195 658.426 343.579 652.348 335.916 645.503 C 335.315 643.28 334.806 641.399 334.389 639.858 z"/>
<path transform="translate(0,0)" fill="rgb(194,142,79)" d="M 221.251 632.33 C 226.353 628.951 242.64 620.956 249.001 617.533 C 249.409 621.299 249.638 622.368 248.917 626.133 L 248.14 632.7 L 245.394 634.352 C 236.945 634.777 228.592 636.134 221.251 632.33 z"/>
<path transform="translate(0,0)" fill="rgb(155,104,48)" d="M 249.001 617.533 C 251.654 615.152 254.676 611.742 258.059 611.562 C 263.61 614.859 263.28 623.054 268.933 631.78 C 260.583 630.748 256.748 626.283 248.917 626.133 C 249.638 622.368 249.409 621.299 249.001 617.533 z"/>
<path transform="translate(0,0)" fill="rgb(210,156,96)" d="M 302.121 427.7 C 310.857 430.251 312.835 437.343 310.917 445.636 L 304.319 454.236 C 304.277 447.383 302.654 435.226 302.121 427.7 z"/>
<path transform="translate(0,0)" fill="rgb(210,156,96)" d="M 532.553 749.431 C 571.729 747.227 588.781 763.595 593.559 800.653 C 595.548 816.081 608.72 840.712 619.235 852.339 C 624.441 858.095 630.478 863.8 635.096 870.207 C 635.383 879.628 637.706 897.691 630.267 904.285 C 609.074 923.072 592.349 943.092 574.261 964.705 C 569.372 970.547 558.722 979.049 552.385 983.548 C 530.655 991.189 516.581 973.742 503.704 959.72 C 491.134 946.032 486.279 935.794 478.042 919.765 C 476.186 916.152 461.963 912.456 459.679 906.007 C 454.444 891.229 456.258 878.68 449.08 864.247 C 452.678 862.249 460.326 857.625 462.352 854.229 C 472.692 836.892 487.505 809.235 493.862 790.786 C 504.331 760.401 496.067 753.398 532.553 749.431 z"/>
<path transform="translate(0,0)" fill="rgb(253,243,184)" d="M 477.525 55.7839 C 487.506 61.3325 494.533 67.6837 503.814 73.6466 C 493.804 77.5839 488.152 79.6014 479.996 87.0095 C 478.467 88.3985 473.897 93.5869 472.981 94.2009 C 456.197 118.969 453.65 140.642 455.172 170.911 C 456.384 195.02 478.703 224.339 474.364 246.018 L 473.833 245.324 C 469.275 239.319 468.434 233.759 458.871 233.905 C 443.228 234.144 428.656 231.667 413.591 229.8 C 398.565 227.937 398.087 231.628 382.744 225.561 C 368.75 229.786 353.209 232.612 340.13 239.651 C 336.744 241.473 337.337 243.173 337.435 246.422 C 336.277 246.843 335.189 247.455 334.087 248.004 C 333.155 243.829 331.561 240.668 327.168 239.935 C 311.775 237.365 294.789 245.514 279.605 247.352 C 275.134 247.684 267.56 247.631 265.138 243.489 C 257.493 230.417 276.045 212.654 283.912 205.708 C 294.648 195.433 309.573 174.594 319.397 162.403 C 326.007 154.199 330.942 143.149 339.66 135.024 C 358.419 117.545 377.124 113.319 396.565 94.841 C 404.109 87.5632 424.472 72.525 434.401 69.8598 C 448.945 65.9558 463.292 60.2143 477.525 55.7839 z"/>
<path transform="translate(0,0)" fill="rgb(187,171,144)" d="M 477.525 55.7839 C 487.506 61.3325 494.533 67.6837 503.814 73.6466 C 493.804 77.5839 488.152 79.6014 479.996 87.0095 C 478.467 88.3985 473.897 93.5869 472.981 94.2009 C 461.966 67.8206 432.37 92.7007 416.407 96.1853 C 410.554 97.4629 402.715 91.7195 396.565 94.841 C 404.109 87.5632 424.472 72.525 434.401 69.8598 C 448.945 65.9558 463.292 60.2143 477.525 55.7839 z"/>
<path transform="translate(0,0)" fill="rgb(187,171,144)" d="M 279.605 247.352 C 275.134 247.684 267.56 247.631 265.138 243.489 C 257.493 230.417 276.045 212.654 283.912 205.708 C 284.501 217.917 286.428 236.21 279.605 247.352 z"/>
<path transform="translate(0,0)" fill="rgb(210,156,96)" d="M 397.328 739.297 C 415.115 702.743 439.728 743.104 464.8 744.814 C 471.963 745.303 479.137 744.789 486.122 745.356 C 488.128 757.643 488.165 777.485 479.706 786.125 C 456.356 809.973 445.155 817.134 438.384 852.105 C 416.763 861.538 395.699 872.079 373.682 881.971 C 360.693 887.807 344.941 912.322 329.521 909.43 C 323.358 907.458 311.122 895.496 306.199 890.488 C 300.374 890.806 288.422 887.383 283.248 884.471 C 277.654 881.323 279.764 873.448 278.773 868.292 C 277.879 863.643 270.65 860.136 268.19 856.854 C 264.473 854.925 263.876 854.668 261.564 851.223 C 261.125 846.853 262.768 841.106 264.282 837.004 C 270.608 833.441 284.62 836.387 292.372 835.418 C 316.152 832.446 353.419 825.668 374.425 838.853 C 402.289 826.184 391.04 831.337 405.241 808.351 C 429.693 768.774 411.689 773.616 397.328 739.297 z"/>
<path transform="translate(0,0)" fill="rgb(155,104,48)" d="M 261.564 851.223 C 261.125 846.853 262.768 841.106 264.282 837.004 C 270.608 833.441 284.62 836.387 292.372 835.418 C 316.152 832.446 353.419 825.668 374.425 838.853 C 351.456 852.243 342.04 860.567 314.684 853.639 C 308.912 847.381 303.522 841.461 296.138 837.047 C 278.73 836.898 269.501 833.431 261.564 851.223 z"/>
<path transform="translate(0,0)" fill="rgb(107,88,69)" d="M 268.19 856.854 L 271.837 857.575 C 274.194 857.954 276.366 858.265 278.689 858.848 C 284.467 870.785 285.728 879 299.574 882.183 C 301.604 884.75 304.092 888.091 306.199 890.488 C 300.374 890.806 288.422 887.383 283.248 884.471 C 277.654 881.323 279.764 873.448 278.773 868.292 C 277.879 863.643 270.65 860.136 268.19 856.854 z"/>
<path transform="translate(0,0)" fill="rgb(155,104,48)" d="M 271.837 857.575 C 273.187 857.325 277.086 856.515 278.389 856.539 C 289.672 856.748 295.259 875.155 299.574 882.183 C 285.728 879 284.467 870.785 278.689 858.848 C 276.366 858.265 274.194 857.954 271.837 857.575 z"/>
<path transform="translate(0,0)" fill="rgb(210,156,96)" d="M 661.499 721.044 C 670.755 720.267 684.947 727.01 685.613 737.522 C 686.787 757.064 681.301 775.275 680.229 795.042 C 678.714 822.996 699.241 832.712 718.268 845.714 C 754.05 870.166 764.906 838.086 800.303 841.337 C 806.409 841.898 819.026 842.03 823.275 846.755 C 823.1 854.374 775.638 890.637 766.621 896.081 C 761.245 898.764 757.303 900.795 751.454 902.635 C 736.909 907.21 735.627 895.317 726.541 888.63 C 711.695 877.702 690.53 879.392 674.058 869.666 C 665.82 864.802 660.266 861.613 653.975 853.882 C 645.414 843.361 644.576 830.196 636.789 819.365 C 630.091 810.048 620.125 801.625 613.859 792.126 C 609.402 785.367 607.861 775.496 603.062 768.271 C 599.377 762.723 591.653 758.95 590.095 753.913 C 591.594 750.548 601.276 748.224 604.672 748.222 C 630.802 748.206 639.83 731.807 661.499 721.044 z"/>
<path transform="translate(0,0)" fill="rgb(210,156,96)" d="M 221.251 632.33 C 228.592 636.134 236.945 634.777 245.394 634.352 L 248.14 632.7 C 247.391 651.632 250.229 670.377 250.421 689.288 C 250.447 691.86 248.393 695.442 247.992 700.147 C 245.523 700.681 246.255 700.502 243.533 699.649 C 233.266 689.353 218.717 672.691 210.357 660.341 C 209.237 658.687 209.034 653.147 208.592 651.315 C 206.751 643.68 209.749 638.063 201.675 635.894 C 209.2 636.3 213.82 634.142 221.251 632.33 z"/>
<path transform="translate(0,0)" fill="rgb(95,81,78)" d="M 52.347 194.364 C 54.1111 195.412 54.4194 195.652 55.3586 197.408 C 56.4314 199.406 57.5238 201.393 58.6355 203.37 C 61.9536 205.445 61.8606 200.645 67.8155 200.194 C 69.1229 201.248 69.5131 201.796 70.2749 203.294 L 71.676 202.97 L 72.5054 198.699 C 69.9285 197.397 63.694 199.265 60.3745 199.942 C 63.7871 196.867 67.7427 193.235 72.7244 194.513 C 75.1356 196.265 75.5764 198.418 76.6736 201.28 L 79.6741 198.646 L 83.5487 201.396 L 83.7331 197.933 L 84.9154 197.393 C 95.1504 201.832 98.8783 223.887 92.5142 227.729 L 91.4138 226.228 C 90.5777 229.381 89.5673 234.531 87.6796 236.879 L 83.1043 236.583 C 76.3419 242.303 79.221 239.168 74.7212 237.777 C 72.7403 239.529 71.9949 240.495 69.425 241.148 L 68.4404 239.64 C 65.0496 241.577 60.836 240.569 56.2311 240.519 C 55.0868 246.089 54.2319 250.33 52.5097 255.787 L 51.6391 255.361 C 54.7252 241.697 46.205 233.759 47.7492 220.779 C 49.2097 208.501 57.4477 207.029 52.347 194.364 z"/>
<path transform="translate(0,0)" fill="rgb(107,88,69)" d="M 364.578 929.024 C 368.742 930.714 374.545 932.338 378.952 933.68 C 395.799 938.812 393.5 960.825 378.3 967.127 C 360.295 960.547 336.706 941.273 364.578 929.024 z"/>
<path transform="translate(0,0)" fill="rgb(107,88,69)" d="M 423.879 939.164 C 432.099 939.255 445.721 947.233 442.531 957.118 C 442.08 958.516 436.746 963.103 435.321 964.362 C 418.276 974.993 408.531 949.284 423.879 939.164 z"/>
<path transform="translate(0,0)" fill="rgb(95,81,78)" d="M 964.494 192.893 C 970.537 192.485 977.678 194.253 983.731 195.418 C 983.99 208.175 986.137 243.762 984.663 254.296 L 983.899 254.103 L 984.781 253.101 L 983.746 252.524 C 982.761 240.65 983.257 228.559 981.963 216.501 C 980.935 206.929 974.286 213.328 971.914 208.898 C 969.782 204.915 971.687 203.468 965.935 199.084 L 965.281 198.592 C 965.132 198.139 965.05 195.985 965.012 195.362 L 963.581 195.341 C 962.721 196.165 961.664 197.178 960.412 198.378 C 957.076 212.939 963.617 243.028 962.874 257.476 C 959.723 249.117 955.229 204.502 957.385 196.588 C 959.875 193.811 960.472 194.294 964.494 192.893 z"/>
<path transform="translate(0,0)" fill="rgb(95,81,78)" d="M 62.1608 811.4 C 65.6916 813.144 66.7247 816.073 69.1187 819.747 L 70.6277 818.666 C 71.256 817.24 71.5138 817.046 72.4223 815.814 C 82.531 820.789 78.8079 840.122 75.7757 848.868 L 74.8927 849.03 C 73.2614 845.68 76.5113 843.722 74.6059 840.392 C 73.6677 838.76 72.7656 837.107 71.9004 835.434 C 69.3793 836.779 72.018 846.728 67.9658 851.277 L 67.0786 850.579 C 63.5293 833.981 55.551 831.01 62.1608 811.4 z"/>
<path transform="translate(0,0)" fill="rgb(126,110,94)" d="M 823.307 760.759 C 828.406 760.697 834.201 767.559 834.435 772.779 C 834.839 781.809 832.069 784.434 826.669 790.825 C 822.046 789.472 818.131 781.39 815.651 777.101 C 816.951 768.079 817.018 767.271 823.307 760.759 z"/>
<path transform="translate(0,0)" fill="rgb(151,124,86)" d="M 861.533 208.944 C 856.653 208.266 837.725 215.267 837.517 204.385 C 844.244 194.629 861.226 197.875 870.697 200.68 C 868.175 202.526 862.527 206.265 861.533 208.944 z"/>
<path transform="translate(0,0)" fill="rgb(107,88,69)" d="M 1029.75 190.444 C 1039.99 194.461 1042.11 204.245 1035.06 212.774 C 1033.27 212.552 1031.33 212.105 1029.56 211.741 C 1026.6 209.755 1025.61 205.384 1024.39 201.878 C 1025.97 197.101 1026.6 194.482 1029.75 190.444 z"/>
<path transform="translate(0,0)" fill="rgb(95,81,78)" d="M 54.51 815.232 C 56.858 816.643 57.1059 817.175 58.6368 819.477 C 58.9836 823.672 59.3261 821.989 57.1524 825.818 C 56.2793 826.733 56.6303 826.344 55.1849 826.802 C 54.0045 824.112 54.4551 818.462 54.51 815.232 z"/>
</svg>